<?xml version="1.0" encoding="utf-8" ?>
<svg baseProfile="full" height="360" version="1.1" width="640" xmlns="http://www.w3.org/2000/svg" xmlns:ev="http://www.w3.org/2001/xml-events" xmlns:xlink="http://www.w3.org/1999/xlink"><defs /><rect fill="rgb(220,220,220)" height="360" width="640" x="0" y="0" /><path d="M84,48 m-7.384615384615385,8.363636363636362 l0.0,11.272727272727273 10.338461538461539,14.181818181818183 l14.76923076923077,5.454545454545454 8.861538461538462,1.090909090909091 l45.784615384615385,4.363636363636364 36.92307692307692,1.090909090909091 l35.44615384615385,-2.909090909090909 17.723076923076924,-9.090909090909092 l8.861538461538462,-14.90909090909091 -2.953846153846154,-22.909090909090907 l-47.261538461538464,0.0 -107.8153846153846,3.6363636363636362 m72.36923076923077,45.81818181818181 l10.338461538461539,17.09090909090909 1.476923076923077,19.27272727272727 l-5.907692307692308,5.454545454545454 -14.76923076923077,6.909090909090909 l-35.44615384615385,9.818181818181818 35.44615384615385,-1.4545454545454546 l54.64615384615384,1.090909090909091 53.169230769230765,-1.8181818181818181 " fill="none" stroke="rgb(138,14,230)" stroke-width="3" /><path d="M252,143 m-2.8131868131868134,24.545454545454543 l5.626373626373627,24.545454545454543 7.736263736263736,7.363636363636362 l13.362637362637361,-0.8181818181818182 30.945054945054945,-24.545454545454543 l0.0,-9.0 -2.10989010989011,-4.090909090909091 l-11.956043956043956,-8.181818181818182 -9.846153846153845,-4.090909090909091 l-14.76923076923077,0.0 -8.43956043956044,2.4545454545454546 l2.10989010989011,3.272727272727273 m113.23076923076924,-18.81818181818182 l-11.956043956043956,2.4545454545454546 -5.626373626373627,10.636363636363635 l0.0,11.454545454545453 7.736263736263736,9.818181818181818 l20.395604395604394,0.0 4.9230769230769225,-4.090909090909091 l7.736263736263736,-13.090909090909092 0.0,-5.727272727272727 l-18.989010989010985,-8.181818181818182 -14.065934065934067,2.4545454545454546 m-58.373626373626365,22.909090909090907 l3.516483516483517,-0.8181818181818182 8.43956043956044,-10.636363636363635 l7.736263736263736,-3.272727272727273 32.35164835164836,0.8181818181818182 m41.494505494505496,-8.181818181818182 l14.76923076923077,-12.272727272727272 26.02197802197802,-31.09090909090909 m-156.83516483516482,53.18181818181818 l36.57142857142857,-59.72727272727272 m-0.7032967032967034,1.6363636363636365 l9.142857142857142,-2.4545454545454546 9.846153846153845,6.545454545454546 l1.4065934065934067,6.545454545454546 " fill="none" stroke="rgb(105,226,190)" stroke-width="3" /><path d="M408,233 m-1.9896373056994818,24.86842105263158 l-4.974093264248704,10.18421052631579 -48.74611398963731,15.868421052631579 l-11.937823834196891,7.815789473684211 0.0,11.368421052631577 l5.9689119170984455,18.94736842105263 4.974093264248704,5.447368421052631 m86.54922279792746,-93.07894736842104 l3.9792746113989637,23.921052631578945 3.9792746113989637,4.5 l5.9689119170984455,3.789473684210526 19.896373056994815,2.8421052631578942 l15.917098445595855,3.789473684210526 5.9689119170984455,3.31578947368421 l15.917098445595855,25.105263157894736 0.0,10.894736842105262 l7.958549222797927,13.973684210526317 m-162.15544041450775,3.31578947368421 l10.94300518134715,-0.47368421052631576 40.787564766839374,1.1842105263157894 l47.751295336787564,0.0 32.82901554404145,-1.657894736842105 l44.76683937823834,-0.9473684210526315 m-111.41968911917097,-98.76315789473684 l-0.9948186528497409,5.447368421052631 9.948186528497407,0.7105263157894736 l16.911917098445592,-2.131578947368421 11.937823834196891,-4.026315789473684 l-5.9689119170984455,-5.6842105263157885 -5.9689119170984455,-0.9473684210526315 l-4.974093264248704,0.23684210526315788 -28.849740932642487,4.263157894736842 " fill="none" stroke="rgb(164,138,33)" stroke-width="3" /><path d="M553,312 m-2.181818181818182,18.94736842105263 l4.363636363636364,4.421052631578947 5.090909090909091,1.263157894736842 l120.72727272727272,-1.894736842105263 22.545454545454547,-10.736842105263158 l26.18181818181818,-17.052631578947366 5.818181818181818,-6.31578947368421 l1.4545454545454546,-10.736842105263158 -21.818181818181817,-5.052631578947368 l-82.9090909090909,0.0 -64.72727272727272,7.578947368421052 l-14.545454545454545,5.052631578947368 -7.999999999999999,7.578947368421052 m10.909090909090908,23.36842105263158 l0.0,24.631578947368418 -5.090909090909091,23.36842105263158 l18.90909090909091,0.0 4.363636363636364,-1.263157894736842 l2.181818181818182,-3.157894736842105 -2.181818181818182,-31.578947368421048 m118.54545454545453,-6.947368421052631 l-2.181818181818182,3.157894736842105 0.0,36.63157894736842 l5.818181818181818,17.684210526315788 3.6363636363636362,1.894736842105263 l3.6363636363636362,-1.263157894736842 20.363636363636363,-17.684210526315788 l4.363636363636364,-6.947368421052631 -2.181818181818182,-10.105263157894736 l-30.545454545454543,-37.263157894736835 " fill="none" stroke="rgb(6,108,177)" stroke-width="3" /></svg>