<?xml version="1.0" encoding="UTF-8"?>
<svg width="80px" height="64px" viewBox="0 0 80 64" version="1.1" xmlns="http://www.w3.org/2000/svg" xmlns:xlink="http://www.w3.org/1999/xlink">
    <!-- Generator: Sketch 52.6 (67491) - http://www.bohemiancoding.com/sketch -->
    <title>Group 6</title>
    <desc>Created with Sketch.</desc>
    <g id="Page-1" stroke="none" stroke-width="1" fill="none" fill-rule="evenodd">
        <g id="Artboard" transform="translate(-1054.000000, -300.000000)" fill="#000000">
            <g id="Group-6" transform="translate(1094.500000, 332.500000) rotate(-270.000000) translate(-1094.500000, -332.500000) translate(1062.000000, 292.000000)">
                <path d="M0.386625091,78.272 C-0.128374909,78.787 -0.129374909,79.622 0.386625091,80.137 C0.902625091,80.652 1.73762509,80.652 2.25162509,80.137 C2.76762509,79.623 2.76762509,78.787 2.25162509,78.272 C1.73562509,77.757 0.901625091,77.758 0.386625091,78.272 Z M2.22762509,70.41 C1.71262509,70.925 1.71162509,71.76 2.22662509,72.275 C2.74262509,72.79 3.57862509,72.79 4.09262509,72.275 C4.60762509,71.761 4.60762509,70.925 4.09162509,70.41 C3.57662509,69.895 2.74162509,69.895 2.22762509,70.41 Z M4.40262509,63.243 C3.88662509,63.758 3.88662509,64.593 4.40162509,65.108 C4.91662509,65.623 5.75262509,65.623 6.26762509,65.108 C6.78162509,64.594 6.78162509,63.758 6.26662509,63.243 C5.75162509,62.728 4.91562509,62.728 4.40262509,63.243 Z M7.31662509,55.848 C6.80162509,56.363 6.80062509,57.198 7.31662509,57.713 C7.83262509,58.228 8.66762509,58.228 9.18162509,57.713 C9.69762509,57.199 9.69762509,56.363 9.18162509,55.848 C8.66562509,55.333 7.83062509,55.333 7.31662509,55.848 Z M11.1006251,48.408 C10.5856251,48.923 10.5846251,49.758 11.0996251,50.273 C11.6156251,50.788 12.4516251,50.788 12.9656251,50.273 C13.4806251,49.759 13.4806251,48.923 12.9646251,48.408 C12.4496251,47.894 11.6146251,47.894 11.1006251,48.408 Z M14.9256251,41.729 C14.4096251,42.244 14.4096251,43.079 14.9246251,43.594 C15.4396251,44.109 16.2756251,44.109 16.7906251,43.594 C17.3046251,43.08 17.3046251,42.244 16.7896251,41.729 C16.2746251,41.214 15.4396251,41.214 14.9256251,41.729 Z M19.4446251,35.104 C18.9286251,35.619 18.9286251,36.454 19.4436251,36.969 C19.9586251,37.484 20.7946251,37.484 21.3096251,36.969 C21.8236251,36.455 21.8236251,35.619 21.3086251,35.104 C20.7936251,34.589 19.9586251,34.59 19.4446251,35.104 Z M24.2276251,29.41 C23.7126251,29.925 23.7116251,30.76 24.2266251,31.275 C24.7426251,31.79 25.5786251,31.79 26.0926251,31.275 C26.6076251,30.761 26.6076251,29.925 26.0916251,29.41 C25.5766251,28.895 24.7416251,28.895 24.2276251,29.41 Z M29.7476251,23.321 C29.2316251,23.836 29.2316251,24.671 29.7476251,25.186 C30.2626251,25.701 31.0976251,25.701 31.6126251,25.186 C32.1276251,24.672 32.1276251,23.836 31.6126251,23.321 C31.0976251,22.806 30.2616251,22.806 29.7476251,23.321 Z M35.5756251,17.932 C35.0606251,18.447 35.0596251,19.282 35.5756251,19.797 C36.0916251,20.312 36.9266251,20.312 37.4406251,19.797 C37.9566251,19.283 37.9566251,18.447 37.4406251,17.932 C36.9246251,17.417 36.0906251,17.417 35.5756251,17.932 Z M42.1856251,13.667 C41.6706251,14.182 41.6696251,15.017 42.1856251,15.532 C42.7016251,16.047 43.5366251,16.047 44.0506251,15.532 C44.5666251,15.018 44.5666251,14.182 44.0506251,13.667 C43.5346251,13.152 42.6996251,13.153 42.1856251,13.667 Z M49.5776251,9.537 C49.0626251,10.052 49.0616251,10.887 49.5776251,11.402 C50.0936251,11.917 50.9286251,11.917 51.4426251,11.402 C51.9586251,10.888 51.9586251,10.052 51.4426251,9.537 C50.9266251,9.022 50.0926251,9.022 49.5776251,9.537 Z M56.9196251,6.235 C56.4036251,6.75 56.4036251,7.585 56.9196251,8.1 C57.4346251,8.615 58.2696251,8.615 58.7846251,8.1 C59.2996251,7.586 59.2996251,6.75 58.7846251,6.235 C58.2696251,5.721 57.4336251,5.721 56.9196251,6.235 Z" id="Shape" fill-rule="nonzero"></path>
                <g id="Group" transform="translate(49.048625, 0.000000)">
                    <path d="M2.374,2.877 C2.321,2.877 2.268,2.872 2.213,2.862 L1.231,2.674 C0.77,2.586 0.468,2.14 0.556,1.679 C0.645,1.218 1.083,0.916 1.551,1.004 L2.533,1.192 C2.994,1.28 3.296,1.726 3.208,2.187 C3.13,2.594 2.773,2.877 2.374,2.877 Z" id="Path"></path>
                    <path d="M10.38,4.412 C10.327,4.412 10.274,4.407 10.219,4.397 L8.217,4.013 C7.756,3.925 7.454,3.479 7.542,3.018 C7.631,2.558 8.07,2.257 8.537,2.343 L10.539,2.727 C11,2.815 11.302,3.261 11.214,3.722 C11.136,4.128 10.779,4.412 10.38,4.412 Z M6.377,3.645 C6.324,3.645 6.271,3.64 6.216,3.63 L4.214,3.247 C3.753,3.159 3.451,2.713 3.539,2.252 C3.627,1.791 4.067,1.491 4.534,1.577 L6.536,1.96 C6.997,2.048 7.299,2.494 7.211,2.955 C7.133,3.361 6.776,3.645 6.377,3.645 Z" id="Shape" fill-rule="nonzero"></path>
                    <path d="M13.049,5.933 C12.961,5.933 12.871,5.919 12.782,5.89 C12.337,5.743 12.094,5.262 12.241,4.816 L12.252,4.786 L12.22,4.78 C11.759,4.692 11.457,4.246 11.545,3.785 C11.634,3.324 12.072,3.022 12.54,3.11 L14.473,3.48 L13.857,5.349 C13.738,5.706 13.406,5.933 13.049,5.933 Z" id="Path"></path>
                    <path d="M10.474,13.719 C10.386,13.719 10.296,13.705 10.207,13.676 C9.761,13.529 9.519,13.048 9.667,12.602 L10.311,10.655 C10.457,10.209 10.935,9.967 11.384,10.114 C11.83,10.261 12.072,10.742 11.924,11.188 L11.28,13.135 C11.163,13.493 10.83,13.719 10.474,13.719 Z M11.761,9.826 C11.673,9.826 11.583,9.812 11.494,9.783 C11.048,9.636 10.806,9.155 10.954,8.709 L11.598,6.762 C11.744,6.316 12.221,6.072 12.671,6.221 C13.117,6.368 13.359,6.849 13.211,7.295 L12.567,9.242 C12.45,9.6 12.117,9.826 11.761,9.826 Z" id="Shape" fill-rule="nonzero"></path>
                    <path d="M9.517,16.615 C9.429,16.615 9.339,16.601 9.25,16.572 C8.805,16.425 8.562,15.944 8.71,15.498 L9.023,14.549 C9.17,14.104 9.646,13.86 10.097,14.008 C10.542,14.155 10.785,14.636 10.638,15.082 L10.324,16.031 C10.206,16.389 9.873,16.615 9.517,16.615 Z" id="Path"></path>
                </g>
            </g>
        </g>
    </g>
</svg>