<?xml version="1.0" encoding="UTF-8"?>
<svg width="64px" height="80px" viewBox="0 0 64 80" version="1.1" xmlns="http://www.w3.org/2000/svg" xmlns:xlink="http://www.w3.org/1999/xlink">
    <!-- Generator: Sketch 52.6 (67491) - http://www.bohemiancoding.com/sketch -->
    <title>Group 7</title>
    <desc>Created with Sketch.</desc>
    <g id="Page-1" stroke="none" stroke-width="1" fill="none" fill-rule="evenodd">
        <g id="Artboard" transform="translate(-479.000000, -284.000000)" fill="#000000">
            <g id="Group-7" transform="translate(479.000000, 283.000000)">
                <path d="M0.386625091,78.4225 C-0.128374909,78.9375 -0.129374909,79.7725 0.386625091,80.2875 C0.902625091,80.8025 1.73762509,80.8025 2.25162509,80.2875 C2.76762509,79.7735 2.76762509,78.9375 2.25162509,78.4225 C1.73562509,77.9075 0.901625091,77.9085 0.386625091,78.4225 Z M2.22762509,70.5605 C1.71262509,71.0755 1.71162509,71.9105 2.22662509,72.4255 C2.74262509,72.9405 3.57862509,72.9405 4.09262509,72.4255 C4.60762509,71.9115 4.60762509,71.0755 4.09162509,70.5605 C3.57662509,70.0455 2.74162509,70.0455 2.22762509,70.5605 Z M4.40262509,63.3935 C3.88662509,63.9085 3.88662509,64.7435 4.40162509,65.2585 C4.91662509,65.7735 5.75262509,65.7735 6.26762509,65.2585 C6.78162509,64.7445 6.78162509,63.9085 6.26662509,63.3935 C5.75162509,62.8785 4.91562509,62.8785 4.40262509,63.3935 Z M7.31662509,55.9985 C6.80162509,56.5135 6.80062509,57.3485 7.31662509,57.8635 C7.83262509,58.3785 8.66762509,58.3785 9.18162509,57.8635 C9.69762509,57.3495 9.69762509,56.5135 9.18162509,55.9985 C8.66562509,55.4835 7.83062509,55.4835 7.31662509,55.9985 Z M11.1006251,48.5585 C10.5856251,49.0735 10.5846251,49.9085 11.0996251,50.4235 C11.6156251,50.9385 12.4516251,50.9385 12.9656251,50.4235 C13.4806251,49.9095 13.4806251,49.0735 12.9646251,48.5585 C12.4496251,48.0445 11.6146251,48.0445 11.1006251,48.5585 Z M14.9256251,41.8795 C14.4096251,42.3945 14.4096251,43.2295 14.9246251,43.7445 C15.4396251,44.2595 16.2756251,44.2595 16.7906251,43.7445 C17.3046251,43.2305 17.3046251,42.3945 16.7896251,41.8795 C16.2746251,41.3645 15.4396251,41.3645 14.9256251,41.8795 Z M19.4446251,35.2545 C18.9286251,35.7695 18.9286251,36.6045 19.4436251,37.1195 C19.9586251,37.6345 20.7946251,37.6345 21.3096251,37.1195 C21.8236251,36.6055 21.8236251,35.7695 21.3086251,35.2545 C20.7936251,34.7395 19.9586251,34.7405 19.4446251,35.2545 Z M24.2276251,29.5605 C23.7126251,30.0755 23.7116251,30.9105 24.2266251,31.4255 C24.7426251,31.9405 25.5786251,31.9405 26.0926251,31.4255 C26.6076251,30.9115 26.6076251,30.0755 26.0916251,29.5605 C25.5766251,29.0455 24.7416251,29.0455 24.2276251,29.5605 Z M29.7476251,23.4715 C29.2316251,23.9865 29.2316251,24.8215 29.7476251,25.3365 C30.2626251,25.8515 31.0976251,25.8515 31.6126251,25.3365 C32.1276251,24.8225 32.1276251,23.9865 31.6126251,23.4715 C31.0976251,22.9565 30.2616251,22.9565 29.7476251,23.4715 Z M35.5756251,18.0825 C35.0606251,18.5975 35.0596251,19.4325 35.5756251,19.9475 C36.0916251,20.4625 36.9266251,20.4625 37.4406251,19.9475 C37.9566251,19.4335 37.9566251,18.5975 37.4406251,18.0825 C36.9246251,17.5675 36.0906251,17.5675 35.5756251,18.0825 Z M42.1856251,13.8175 C41.6706251,14.3325 41.6696251,15.1675 42.1856251,15.6825 C42.7016251,16.1975 43.5366251,16.1975 44.0506251,15.6825 C44.5666251,15.1685 44.5666251,14.3325 44.0506251,13.8175 C43.5346251,13.3025 42.6996251,13.3035 42.1856251,13.8175 Z M49.5776251,9.6875 C49.0626251,10.2025 49.0616251,11.0375 49.5776251,11.5525 C50.0936251,12.0675 50.9286251,12.0675 51.4426251,11.5525 C51.9586251,11.0385 51.9586251,10.2025 51.4426251,9.6875 C50.9266251,9.1725 50.0926251,9.1725 49.5776251,9.6875 Z M56.9196251,6.3855 C56.4036251,6.9005 56.4036251,7.7355 56.9196251,8.2505 C57.4346251,8.7655 58.2696251,8.7655 58.7846251,8.2505 C59.2996251,7.7365 59.2996251,6.9005 58.7846251,6.3855 C58.2696251,5.8715 57.4336251,5.8715 56.9196251,6.3855 Z" id="Shape" fill-rule="nonzero"></path>
                <g id="Group" transform="translate(49.000000, 0.000000)">
                    <path d="M2.374,2.877 C2.321,2.877 2.268,2.872 2.213,2.862 L1.231,2.674 C0.77,2.586 0.468,2.14 0.556,1.679 C0.645,1.218 1.083,0.916 1.551,1.004 L2.533,1.192 C2.994,1.28 3.296,1.726 3.208,2.187 C3.13,2.594 2.773,2.877 2.374,2.877 Z" id="Path"></path>
                    <path d="M10.38,4.412 C10.327,4.412 10.274,4.407 10.219,4.397 L8.217,4.013 C7.756,3.925 7.454,3.479 7.542,3.018 C7.631,2.558 8.07,2.257 8.537,2.343 L10.539,2.727 C11,2.815 11.302,3.261 11.214,3.722 C11.136,4.128 10.779,4.412 10.38,4.412 Z M6.377,3.645 C6.324,3.645 6.271,3.64 6.216,3.63 L4.214,3.247 C3.753,3.159 3.451,2.713 3.539,2.252 C3.627,1.791 4.067,1.491 4.534,1.577 L6.536,1.96 C6.997,2.048 7.299,2.494 7.211,2.955 C7.133,3.361 6.776,3.645 6.377,3.645 Z" id="Shape" fill-rule="nonzero"></path>
                    <path d="M13.049,5.933 C12.961,5.933 12.871,5.919 12.782,5.89 C12.337,5.743 12.094,5.262 12.241,4.816 L12.252,4.786 L12.22,4.78 C11.759,4.692 11.457,4.246 11.545,3.785 C11.634,3.324 12.072,3.022 12.54,3.11 L14.473,3.48 L13.857,5.349 C13.738,5.706 13.406,5.933 13.049,5.933 Z" id="Path"></path>
                    <path d="M10.474,13.719 C10.386,13.719 10.296,13.705 10.207,13.676 C9.761,13.529 9.519,13.048 9.667,12.602 L10.311,10.655 C10.457,10.209 10.935,9.967 11.384,10.114 C11.83,10.261 12.072,10.742 11.924,11.188 L11.28,13.135 C11.163,13.493 10.83,13.719 10.474,13.719 Z M11.761,9.826 C11.673,9.826 11.583,9.812 11.494,9.783 C11.048,9.636 10.806,9.155 10.954,8.709 L11.598,6.762 C11.744,6.316 12.221,6.072 12.671,6.221 C13.117,6.368 13.359,6.849 13.211,7.295 L12.567,9.242 C12.45,9.6 12.117,9.826 11.761,9.826 Z" id="Shape" fill-rule="nonzero"></path>
                    <path d="M9.517,16.615 C9.429,16.615 9.339,16.601 9.25,16.572 C8.805,16.425 8.562,15.944 8.71,15.498 L9.023,14.549 C9.17,14.104 9.646,13.86 10.097,14.008 C10.542,14.155 10.785,14.636 10.638,15.082 L10.324,16.031 C10.206,16.389 9.873,16.615 9.517,16.615 Z" id="Path"></path>
                </g>
            </g>
        </g>
    </g>
</svg>