<?xml version="1.0" encoding="UTF-8"?>
<svg width="64px" height="80px" viewBox="0 0 64 80" version="1.1" xmlns="http://www.w3.org/2000/svg" xmlns:xlink="http://www.w3.org/1999/xlink">
    <!-- Generator: Sketch 52.6 (67491) - http://www.bohemiancoding.com/sketch -->
    <title>Group 7 Copy</title>
    <desc>Created with Sketch.</desc>
    <g id="Page-1" stroke="none" stroke-width="1" fill="none" fill-rule="evenodd">
        <g id="Artboard" transform="translate(-91.000000, -354.000000)" fill="#000000">
            <g id="Group-7-Copy" transform="translate(123.000000, 394.500000) scale(1, -1) translate(-123.000000, -394.500000) translate(91.000000, 354.000000)">
                <path d="M0.385508586,78.7389143 C-0.128004185,79.2561643 -0.129001297,80.0948124 0.385508586,80.6120625 C0.900018468,81.1293125 1.73260713,81.1293125 2.24512279,80.6120625 C2.75963268,80.0958168 2.75963268,79.2561643 2.24512279,78.7389143 C1.73061291,78.2216642 0.899021356,78.2226686 0.385508586,78.7389143 Z M2.2211921,70.8425652 C1.70767933,71.3598152 1.70668222,72.1984633 2.22019499,72.7157134 C2.73470487,73.2329634 3.56829065,73.2329634 4.08080631,72.7157134 C4.59431908,72.1994677 4.59431908,71.3598152 4.0798092,70.8425652 C3.56629643,70.3253151 2.73370776,70.3253151 2.2211921,70.8425652 Z M4.38991108,63.6442525 C3.8754012,64.1615025 3.8754012,65.0001507 4.38891397,65.5174007 C4.90242674,66.0346507 5.73601252,66.0346507 6.24952529,65.5174007 C6.76204095,65.001155 6.76204095,64.1615025 6.24852818,63.6442525 C5.73501541,63.1270025 4.90142963,63.1270025 4.38991108,63.6442525 Z M7.29549596,56.2169437 C6.78198319,56.7341937 6.78098608,57.5728419 7.29549596,58.0900919 C7.81000585,58.6073419 8.64259451,58.6073419 9.15511017,58.0900919 C9.66962005,57.5738462 9.66962005,56.7341937 9.15511017,56.2169437 C8.64060029,55.6996937 7.80801162,55.6996937 7.29549596,56.2169437 Z M11.0685684,48.7444383 C10.5550557,49.2616883 10.5540586,50.1003365 11.0675713,50.6175865 C11.5820812,51.1348365 12.415667,51.1348365 12.9281826,50.6175865 C13.4416954,50.1013408 13.4416954,49.2616883 12.9271855,48.7444383 C12.4136728,48.2281926 11.5810841,48.2281926 11.0685684,48.7444383 Z M14.8825225,42.0362577 C14.3680126,42.5535078 14.3680126,43.3921559 14.8815254,43.9094059 C15.3950382,44.426656 16.2286239,44.426656 16.7421367,43.9094059 C17.2546524,43.3931602 17.2546524,42.5535078 16.7411396,42.0362577 C16.2276268,41.5190077 15.3950382,41.5190077 14.8825225,42.0362577 Z M19.3884724,35.3823131 C18.8739625,35.8995631 18.8739625,36.7382112 19.3874753,37.2554613 C19.9009881,37.7727113 20.7345739,37.7727113 21.2480866,37.2554613 C21.7606023,36.7392156 21.7606023,35.8995631 21.2470895,35.3823131 C20.7335768,34.865063 19.9009881,34.8660674 19.3884724,35.3823131 Z M24.15766,29.6634359 C23.6441472,30.180686 23.6431501,31.0193341 24.1566629,31.5365841 C24.6711727,32.0538342 25.5047585,32.0538342 26.0172742,31.5365841 C26.5307869,31.0203385 26.5307869,30.180686 26.0162771,29.6634359 C25.5027643,29.1461859 24.6701756,29.1461859 24.15766,29.6634359 Z M29.6617192,23.5478331 C29.1472093,24.0650831 29.1472093,24.9037312 29.6617192,25.4209813 C30.1752319,25.9382313 31.0078206,25.9382313 31.5213334,25.4209813 C32.0348462,24.9047356 32.0348462,24.0650831 31.5213334,23.5478331 C31.0078206,23.030583 30.1742348,23.030583 29.6617192,23.5478331 Z M35.4728889,18.1352885 C34.9593762,18.6525385 34.9583791,19.4911867 35.4728889,20.0084367 C35.9873988,20.5256867 36.8199875,20.5256867 37.3325031,20.0084367 C37.847013,19.492191 37.847013,18.6525385 37.3325031,18.1352885 C36.8179933,17.6180385 35.9864017,17.6180385 35.4728889,18.1352885 Z M42.0638004,13.8516547 C41.5502876,14.3689047 41.5492905,15.2075529 42.0638004,15.7248029 C42.5783103,16.2420529 43.410899,16.2420529 43.9234146,15.7248029 C44.4379245,15.2085572 44.4379245,14.3689047 43.9234146,13.8516547 C43.4089047,13.3344047 42.5763161,13.335409 42.0638004,13.8516547 Z M49.4344536,9.70361071 C48.9209408,10.2208607 48.9199437,11.0595089 49.4344536,11.5767589 C49.9489635,12.0940089 50.7815522,12.0940089 51.2940678,11.5767589 C51.8085777,11.0605132 51.8085777,10.2208607 51.2940678,9.70361071 C50.7795579,9.18636067 49.9479664,9.18636067 49.4344536,9.70361071 Z M56.7552512,6.38718425 C56.2407413,6.90443429 56.2407413,7.74308241 56.7552512,8.26033245 C57.268764,8.77758248 58.1013527,8.77758248 58.6148654,8.26033245 C59.1283782,7.74408678 59.1283782,6.90443429 58.6148654,6.38718425 C58.1013527,5.87093858 57.2677669,5.87093858 56.7552512,6.38718425 Z" id="Shape" fill-rule="nonzero"></path>
                <g id="Group" transform="translate(49.000000, 0.000000)">
                    <path d="M2.374,2.877 C2.321,2.877 2.268,2.872 2.213,2.862 L1.231,2.674 C0.77,2.586 0.468,2.14 0.556,1.679 C0.645,1.218 1.083,0.916 1.551,1.004 L2.533,1.192 C2.994,1.28 3.296,1.726 3.208,2.187 C3.13,2.594 2.773,2.877 2.374,2.877 Z" id="Path"></path>
                    <path d="M10.38,4.412 C10.327,4.412 10.274,4.407 10.219,4.397 L8.217,4.013 C7.756,3.925 7.454,3.479 7.542,3.018 C7.631,2.558 8.07,2.257 8.537,2.343 L10.539,2.727 C11,2.815 11.302,3.261 11.214,3.722 C11.136,4.128 10.779,4.412 10.38,4.412 Z M6.377,3.645 C6.324,3.645 6.271,3.64 6.216,3.63 L4.214,3.247 C3.753,3.159 3.451,2.713 3.539,2.252 C3.627,1.791 4.067,1.491 4.534,1.577 L6.536,1.96 C6.997,2.048 7.299,2.494 7.211,2.955 C7.133,3.361 6.776,3.645 6.377,3.645 Z" id="Shape" fill-rule="nonzero"></path>
                    <path d="M13.049,5.933 C12.961,5.933 12.871,5.919 12.782,5.89 C12.337,5.743 12.094,5.262 12.241,4.816 L12.252,4.786 L12.22,4.78 C11.759,4.692 11.457,4.246 11.545,3.785 C11.634,3.324 12.072,3.022 12.54,3.11 L14.473,3.48 L13.857,5.349 C13.738,5.706 13.406,5.933 13.049,5.933 Z" id="Path"></path>
                    <path d="M10.474,13.719 C10.386,13.719 10.296,13.705 10.207,13.676 C9.761,13.529 9.519,13.048 9.667,12.602 L10.311,10.655 C10.457,10.209 10.935,9.967 11.384,10.114 C11.83,10.261 12.072,10.742 11.924,11.188 L11.28,13.135 C11.163,13.493 10.83,13.719 10.474,13.719 Z M11.761,9.826 C11.673,9.826 11.583,9.812 11.494,9.783 C11.048,9.636 10.806,9.155 10.954,8.709 L11.598,6.762 C11.744,6.316 12.221,6.072 12.671,6.221 C13.117,6.368 13.359,6.849 13.211,7.295 L12.567,9.242 C12.45,9.6 12.117,9.826 11.761,9.826 Z" id="Shape" fill-rule="nonzero"></path>
                    <path d="M9.517,16.615 C9.429,16.615 9.339,16.601 9.25,16.572 C8.805,16.425 8.562,15.944 8.71,15.498 L9.023,14.549 C9.17,14.104 9.646,13.86 10.097,14.008 C10.542,14.155 10.785,14.636 10.638,15.082 L10.324,16.031 C10.206,16.389 9.873,16.615 9.517,16.615 Z" id="Path"></path>
                </g>
            </g>
        </g>
    </g>
</svg>