<?xml version="1.0" encoding="UTF-8"?>
<svg width="80px" height="79px" viewBox="0 0 80 79" version="1.1" xmlns="http://www.w3.org/2000/svg" xmlns:xlink="http://www.w3.org/1999/xlink">
    <!-- Generator: Sketch 52.3 (67297) - http://www.bohemiancoding.com/sketch -->
    <title>noun_Doodles_1277816</title>
    <desc>Created with Sketch.</desc>
    <g id="Page-1" stroke="none" stroke-width="1" fill="none" fill-rule="evenodd">
        <g id="noun_Doodles_1277816" transform="translate(0.000000, -1.000000)" fill="#000000" fill-rule="nonzero">
            <path d="M19.7016949,36.61 L23.2542373,36.13 L38.0745763,34.24 C38.2991778,34.2143337 38.5254969,34.1976426 38.7525424,34.19 C40.9491525,34.09 41.4644068,34.55 40.6915254,36.02 C40.1084746,37.11 39.3355932,38.16 38.7389831,39.23 C36.6101695,42.81 34.3864407,46.38 32.2440678,50 C28.7728814,55.79 25.2474576,61.57 21.8983051,67.4 C19.9370277,70.3722542 18.501553,73.5179945 17.6271186,76.76 C17.3966102,77.94 15.7288136,78.26 15.2949153,79.26 C14.8610169,79.12 14.2237288,79.05 14.0474576,78.81 C13.9053564,78.4406229 13.9053564,78.0493771 14.0474576,77.68 C14.7932203,73.58 15.5932203,69.48 16.3118644,65.37 C16.7186441,63.04 16.9491525,60.69 17.3016949,58.37 C17.8440678,54.75 18.4135593,51.13 18.9694915,47.51 C19.0508475,47.02 19.1322034,46.51 19.2677966,45.82 C18.4813559,45.96 17.9118644,46.06 17.3966102,46.14 L2.71186441,48.3 L2.26440678,48.3 C0.623728814,48.37 0.149152542,47.93 0.745762712,46.8 C1.34237288,45.67 2.19661017,44.33 2.83389831,43.07 C3.09094763,42.437207 3.29026339,41.7924318 3.43050847,41.14 C3.5284918,40.6470159 3.68734417,40.1616652 3.90508475,39.69 C6.45918656,35.1963595 8.46928075,30.5448972 9.91186441,25.79 C11.50455,21.3456996 13.5627123,16.9993051 16.0677966,12.79 C17.2067797,10.72 18.6711864,8.79 20,6.73 C20.2033898,6.43 20.379661,6.04 20.7186441,5.9 C21.0576271,5.76 21.9932203,5.7 22.0745763,5.82 C22.6169492,6.63 23.6881356,7.22 23.4305085,8.36 C22.6169492,12.81 21.9118644,17.26 21.2745763,21.72 C20.6372881,26.18 20.0949153,30.87 19.5254237,35.45 C19.5402887,35.8396116 19.5992507,36.2276269 19.7016949,36.61 Z M19.2,15.45 C16.2711864,18.57 4.56949153,43.32 4.77288136,45.39 C7.40338983,45.11 10.020339,44.84 12.6372881,44.54 C15.5661017,44.2 18.4813559,43.81 21.4101695,43.54 C22.1106354,43.5388195 22.8082275,43.606071 23.4847458,43.74 C21.765214,48.182765 20.536339,52.72093 19.8101695,57.31 C19.1864407,60.98 18.6983051,64.66 18.1559322,68.31 C18.1985369,68.6224008 18.2848726,68.9307103 18.4135593,69.23 C20.8677966,65.23 23.1186441,61.58 25.3288136,57.92 C27.5389831,54.26 29.979661,50.6 31.9322034,46.84 C33.8847458,43.08 36.5830508,39.64 38.3186441,35.68 C37.8968986,35.6776881 37.4754734,35.6977398 37.0576271,35.74 C32.6372881,36.58 28.2169492,37.4 23.7966102,38.2 C22.440678,38.46 21.0847458,38.84 19.620339,39.06 C17.9118644,39.33 17.3830508,38.99 17.3423729,37.74 C17.3423729,37.12 17.3423729,36.5 17.3423729,35.89 C17.8440678,30.52 18.3728814,25.15 18.8745763,19.77 C18.9830508,18.33 19.0915254,16.89 19.2,15.45 Z" id="Shape"></path>
            <path d="M60.1084746,8.45 C60.5559322,7.87 60.8813559,7.45 61.1525424,7.1 C62.5526158,5.03705469 64.70876,3.30485826 67.3762712,2.1 C69.3092879,1.14981564 71.6675506,0.791213837 73.9525424,1.1 C76.5527727,1.58136869 78.4726914,3.20471406 78.7661017,5.17 C79.5138583,8.03913781 79.8411631,10.959253 79.7423729,13.88 C79.5254237,21 77.9661017,28 76.8813559,35 C76.4897927,36.8262166 75.9463953,38.6329565 75.2542373,40.41 C74.9694915,41.27 74.3322034,42.11 75.5389831,42.9 C75.7178923,43.1325904 75.7178923,43.4174096 75.5389831,43.65 C75.2248572,43.8709233 74.7863038,43.9675815 74.359322,43.91 C73.7192052,43.7352932 73.1563881,43.4343619 72.7322034,43.04 C70.8542224,41.2746743 68.6758621,39.6950213 66.2508475,38.34 C64.420339,37.16 62.8610169,35.76 61.1118644,34.52 C58.3050847,32.44 55.3491525,30.36 52.3389831,28.4 C48.2421731,25.7852916 44.9741987,22.5387837 42.7661017,18.89 C41.933174,17.3169976 41.3639845,15.674829 41.0711864,14 C40.3118644,10.74 44.5966102,7.47 48.4067797,7.17 C52.2169492,6.87 56.3254237,6.56 60.1084746,8.45 Z M73.220339,39.89 C74.0277939,38.3610445 74.5346193,36.7547847 74.7254237,35.12 C75.1186441,32.39 75.2542373,29.64 75.6610169,26.91 C76.4604788,22.2339716 76.818403,17.5226248 76.7322034,12.81 C76.5198086,9.65987171 75.1410763,6.61288496 72.7457627,4 C72.3928132,3.48332708 71.7278083,3.1211875 70.954387,3.02447639 C70.1809657,2.92776528 69.3912687,3.10800419 68.8271186,3.51 C66.4834891,4.9569012 64.6971667,6.83300735 63.6474576,8.95 C63.2461548,9.52221497 63.4442799,10.2235776 64.1220339,10.63 C66.6576271,12.17 67.5525424,14.41 68.8,16.51 C69.3359373,17.4597441 69.2406735,18.5394845 68.5423729,19.43 C68.0956211,20.3006683 66.9706752,20.8802307 65.7084746,20.89 C63.4701326,20.7454951 61.5061797,19.7316044 60.5559322,18.23 C59.7016949,16.23 58.6169492,14.31 59.4033898,12.17 C59.7255142,11.6292558 59.4452913,10.9963461 58.7525424,10.7 C57.1118644,10.01 55.5254237,9.22 53.8033898,8.64 C52.9004903,8.35879126 51.9045099,8.28220462 50.9423729,8.42 C49.5393193,8.66597547 48.1757179,9.02130729 46.8745763,9.48 C45.0934826,10.0603162 43.8538859,11.2855752 43.6067797,12.71 C42.9420788,14.9326338 43.5504043,17.2590496 45.2881356,19.14 C47.0572423,20.9600072 48.9677856,22.7029252 51.0101695,24.36 C54.5627119,27.28 58.2915254,30.07 61.8576271,32.98 C65.2731835,35.5972123 69.0858422,37.9158024 73.220339,39.89 Z M62.7254237,13.44 C61.0440678,15.77 62.5355932,17.68 65.7898305,19.27 C65.8576271,16.91 64.4610169,15.21 62.7254237,13.44 Z M77.0305085,6.75 C76.9491525,3.94 75.3627119,2.2 73.3016949,2.36 L77.0305085,6.75 Z" id="Shape"></path>
            <path d="M58.6169492,69.74 C56.2033898,71 54.020339,72 51.9864407,73.15 C51.2521738,73.7038456 50.6186194,74.3257203 50.1016949,75 C49.640678,75.46 49.1525424,76 48.2440678,75.54 C47.4487957,75.2735668 47.0304474,74.6226913 47.2542373,74 C47.4131224,73.6881895 47.6081964,73.3870724 47.8372881,73.1 L52.5016949,65.84 C52.5016949,65.84 52.5016949,65.73 52.5016949,65.42 C50.6305085,64.42 48.5966102,63.23 46.5355932,62.1 C45.4372881,61.5 44.2711864,60.96 43.2135593,60.33 C42.1559322,59.7 42.2915254,59.27 43.2949153,58.89 C44.0320337,58.6365597 44.8419781,58.5198393 45.6542373,58.55 C48.9220339,58.6 52.1898305,58.7 55.4576271,58.82 C56.6626473,58.9035024 57.8065716,58.4133853 58.3050847,57.6 C59.6610169,55.75 61.2610169,53.94 62.8881356,52.18 C63.74267,51.3956292 64.6861893,50.6663296 65.7084746,50 C66.9423729,49.95 67.3491525,50.58 67.3627119,51.38 C67.3627119,52.72 67.3627119,54.07 67.3627119,55.38 C67.3627119,56.16 67.3627119,56.93 67.3627119,57.93 L72.3932203,58.28 C73.5976257,58.2608853 74.7967309,58.4031929 75.9322034,58.7 C76.8813559,59.07 77.4237288,59.99 78.3457627,60.85 C75.3898305,62.44 72.0135593,63.37 68.9491525,65.08 L70.3050847,72.15 C70.6847458,74.15 71.1050847,76.15 71.4169492,78.15 C71.4892533,78.5758709 71.294608,79.002843 70.8881356,79.31 C70.1830508,79.6 69.7084746,79.12 69.2474576,78.71 C66.6711864,76.43 64.0723164,74.1666667 61.4508475,71.92 C60.6237288,71.2 59.6610169,70.55 58.6169492,69.74 Z M58.9559322,67.21 C60.8677966,66.28 62.5627119,65.44 64.2711864,64.63 C65.6437001,63.8351614 65.9932136,62.408855 65.0847458,61.31 C64.3661017,60.67 59.2271186,60.64 58.4949153,61.31 C58.395942,61.3964003 58.3095894,61.4902518 58.2372881,61.59 L55.7288136,64.95 L58.9559322,67.21 Z M60.6779661,68.58 L67.6745763,74.68 L68.1355932,74.5 C67.2813559,71.8 67.2677966,68.98 66.0067797,66.03 L60.6779661,68.58 Z M48.4745763,60.9 L48.3118644,61.2 L53.5864407,64 C54.8726263,63.1157777 55.6695763,61.9117794 55.8237288,60.62 L48.4745763,60.9 Z M56.9491525,68.49 L54.5491525,67 C53.8310105,68.0015139 53.4234566,69.1081617 53.3559322,70.24 L56.9491525,68.49 Z M63.8237288,55.86 L63.2,55.76 L61.179661,58.33 L64.3661017,58.07 L63.8237288,55.86 Z M71.159322,61.44 L70.820339,60.88 C69.8819153,61.0187215 68.9708307,61.2438163 68.1084746,61.55 C67.7288136,61.73 67.8644068,62.39 68.9762712,62.6 L71.159322,61.44 Z" id="Shape"></path>
        </g>
    </g>
</svg>