<?xml version="1.0" encoding="UTF-8"?>
<svg width="276px" height="261px" viewBox="0 0 276 261" version="1.1" xmlns="http://www.w3.org/2000/svg" xmlns:xlink="http://www.w3.org/1999/xlink">
    <!-- Generator: Sketch 52.6 (67491) - http://www.bohemiancoding.com/sketch -->
    <title>noun_Thought Bubble_58317</title>
    <desc>Created with Sketch.</desc>
    <g id="Page-1" stroke="none" stroke-width="1" fill="none" fill-rule="evenodd">
        <g id="noun_Thought-Bubble_58317" transform="translate(-2.000000, 0.000000)" fill="#000000">
            <g id="Group">
                <path d="M72.45,211.018182 C67.4227273,211.018182 62.8727273,213.086364 59.5954545,216.427273 C56.3181818,219.736364 54.3136364,224.35 54.3136364,229.377273 C54.3136364,234.404545 56.3181818,239.018182 59.5954545,242.327273 C62.8409091,245.636364 67.4227273,247.736364 72.45,247.736364 C77.4772727,247.736364 82.0272727,245.668182 85.3045455,242.327273 C88.5818182,239.018182 90.5863636,234.404545 90.5863636,229.377273 C90.5863636,224.35 88.5818182,219.736364 85.3045455,216.427273 C82.0272727,213.086364 77.4772727,211.018182 72.45,211.018182 Z M78.4954545,235.613636 C76.9045455,237.204545 74.8045455,238.159091 72.45,238.159091 C70.0954545,238.159091 67.9954545,237.204545 66.4045455,235.613636 C64.8454545,234.022727 63.8590909,231.827273 63.8590909,229.377273 C63.8590909,226.895455 64.8454545,224.731818 66.4045455,223.140909 C67.9954545,221.55 70.0954545,220.595455 72.45,220.595455 C74.8045455,220.595455 76.9045455,221.55 78.4954545,223.140909 C80.0545455,224.731818 81.0409091,226.927273 81.0409091,229.377273 C81.0409091,231.827273 80.0545455,233.990909 78.4954545,235.613636 Z" id="Shape" fill-rule="nonzero"></path>
                <path d="M254.863636,97.3636364 C256.2,92.5909091 256.931818,87.5636364 256.931818,82.3772727 C256.931818,67.0409091 250.790909,53.0727273 240.863636,42.9863636 C230.936364,32.9 217.159091,26.6 201.95,26.6318182 C195.554545,26.6318182 189.413636,27.7772727 183.718182,29.8136364 C172.009091,12.2181818 152.154545,0.572727273 129.563636,0.572727273 C112.286364,0.572727273 96.5363636,7.41363636 84.8909091,18.4863636 C74.9,28 67.9,40.6636364 65.3227273,54.9181818 C62.7454545,54.5363636 60.1363636,54.3136364 57.4318182,54.3136364 C42.3181818,54.3136364 28.5727273,60.55 18.7090909,70.6045455 C8.87727273,80.5954545 2.76818182,94.5 2.76818182,109.772727 C2.76818182,129.118182 12.5681818,146.204545 27.4272727,156.131818 C27.3954545,156.863636 27.3318182,157.595455 27.3318182,158.359091 C27.3318182,170.418182 30.9272727,181.840909 37.8636364,190.527273 C41.3318182,194.854545 45.6909091,198.481818 50.75,200.995455 C55.8409091,203.509091 61.6318182,204.909091 67.8681818,204.909091 C70.2227273,204.909091 72.5136364,204.559091 74.7727273,204.113636 C77.4454545,203.540909 80.0227273,202.809091 82.2181818,202.109091 C83.2363636,203.954545 84.5727273,206.118182 86.2272727,208.345455 C88.5181818,211.4 91.4772727,214.581818 95.2954545,217.286364 C99.0818182,219.959091 103.822727,222.090909 109.295455,222.790909 C111.681818,223.077273 114.004545,223.236364 116.231818,223.236364 C128.927273,223.236364 138.918182,218.781818 145.6,214.390909 C148.304545,212.609091 150.5,210.859091 152.154545,209.331818 C153.459091,210.063636 154.986364,210.827273 156.768182,211.622727 C162.495455,214.168182 170.609091,216.713636 180.281818,216.713636 C182.540909,216.713636 184.895455,216.586364 187.281818,216.268182 C198.959091,214.740909 210.859091,209.681818 220.213636,201.281818 C224.890909,197.081818 228.9,191.990909 231.763636,186.104545 C233.672727,182.190909 235.009091,177.895455 235.772727,173.313636 C236.440909,173.345455 237.077273,173.440909 237.745455,173.440909 C248.659091,173.440909 258.586364,168.922727 265.713636,161.668182 C272.840909,154.445455 277.231818,144.422727 277.231818,133.413636 C277.231818,117.536364 268.131818,103.822727 254.863636,97.3636364 Z M256.645455,152.727273 C251.777273,157.659091 245.127273,160.681818 237.777273,160.681818 C235.709091,160.681818 233.672727,160.427273 231.636364,159.918182 L223.904545,158.072727 L223.777273,166.027273 C223.681818,171.436364 222.472727,176.209091 220.372727,180.504545 C217.254545,186.9 212.1,192.245455 205.927273,196.222727 C199.754545,200.2 192.531818,202.745455 185.690909,203.636364 C183.845455,203.890909 182.063636,203.986364 180.313636,203.986364 C172.9,203.986364 166.472727,202.013636 161.954545,199.977273 C159.695455,198.990909 157.913636,197.972727 156.704545,197.240909 C156.1,196.890909 155.686364,196.572727 155.4,196.381818 L155.113636,196.190909 L155.081818,196.159091 L150.181818,192.436364 L146.331818,197.209091 C146.236364,197.304545 143.340909,200.740909 138.154545,204.018182 C132.968182,207.295455 125.618182,210.445455 116.263636,210.445455 C114.545455,210.445455 112.763636,210.35 110.918182,210.095455 C107.768182,209.713636 105.095455,208.504545 102.677273,206.818182 C99.05,204.304545 96.1227273,200.518182 94.2454545,197.336364 C93.2909091,195.745455 92.5909091,194.345455 92.1454545,193.359091 C91.9227273,192.881818 91.7636364,192.5 91.6681818,192.245455 L91.5727273,191.990909 L91.5727273,191.959091 L89.3454545,185.786364 L83.2363636,188.236364 L83.1409091,188.268182 C82.6318182,188.459091 79.9909091,189.477273 76.8409091,190.431818 C75.25,190.909091 73.5636364,191.354545 71.9727273,191.640909 C70.3818182,191.959091 68.9181818,192.118182 67.9636364,192.118182 C63.5727273,192.118182 59.8181818,191.163636 56.4772727,189.540909 C51.5136364,187.090909 47.4727273,182.954545 44.6090909,177.545455 C41.7454545,172.136364 40.1227273,165.454545 40.1227273,158.327273 C40.1227273,156.831818 40.25,155.272727 40.5045455,153.65 L41.1090909,149.354545 L37.3227273,147.222727 C24.3727273,139.936364 15.5590909,125.936364 15.5590909,109.740909 C15.5590909,97.8727273 20.2681818,87.2136364 27.9045455,79.45 C35.5409091,71.7181818 45.9772727,66.9772727 57.5590909,66.9454545 C61.5363636,66.9454545 65.3863636,67.55 69.0772727,68.6318182 L76.65,70.8272727 L77.1909091,62.9681818 C78.1772727,49.0318182 84.35,36.5909091 93.7681818,27.6181818 C103.186364,18.6454545 115.754545,13.2045455 129.659091,13.2045455 C149.418182,13.2045455 166.631818,24.2772727 175.668182,40.7590909 L178.563636,46.0727273 L184.004545,43.4318182 C189.509091,40.7590909 195.586364,39.2636364 202.045455,39.2636364 C213.690909,39.2636364 224.222727,44.0363636 231.890909,51.8318182 C239.559091,59.6272727 244.3,70.35 244.3,82.3136364 C244.3,88.1045455 243.154545,93.6090909 241.118182,98.6363636 L238.477273,105.159091 L245.222727,107.131818 C256.327273,110.377273 264.6,120.845455 264.568182,133.35 C264.504545,140.986364 261.513636,147.795455 256.645455,152.727273 Z" id="Shape" fill-rule="nonzero"></path>
                <ellipse id="Oval" cx="49.9227273" cy="253.018182" rx="7.22272727" ry="7.31818182"></ellipse>
            </g>
        </g>
    </g>
</svg>